<?xml version="1.0" standalone="no"?>
<!DOCTYPE svg PUBLIC "-//W3C//DTD SVG 20010904//EN"
 "http://www.w3.org/TR/2001/REC-SVG-20010904/DTD/svg10.dtd">
<svg version="1.0" xmlns="http://www.w3.org/2000/svg"
 width="750.000000pt" height="680.000000pt" viewBox="0 0 750.000000 680.000000"
 preserveAspectRatio="xMidYMid meet">

<g transform="translate(0.000000,680.000000) scale(0.100000,-0.100000)"
fill="#000000" stroke="none">
<path d="M5170 5856 c0 -2 7 -7 16 -10 8 -3 12 -2 9 4 -6 10 -25 14 -25 6z"/>
<path d="M4975 5830 c-3 -6 1 -7 9 -4 18 7 21 14 7 14 -6 0 -13 -4 -16 -10z"/>
<path d="M5285 5710 c10 -11 20 -20 23 -20 3 0 -3 9 -13 20 -10 11 -20 20 -23
20 -3 0 3 -9 13 -20z"/>
<path d="M4990 5695 c-39 -29 -90 -100 -90 -124 0 -9 9 2 19 24 18 40 68 92
106 113 11 6 15 12 9 12 -5 0 -26 -11 -44 -25z"/>
<path d="M4909 5668 c-17 -24 -18 -29 -6 -19 18 14 42 51 33 51 -3 0 -15 -15
-27 -32z"/>
<path d="M5090 5685 c0 -8 -6 -15 -14 -15 -7 0 -30 -11 -50 -25 -21 -14 -41
-23 -46 -20 -5 3 -15 -7 -23 -22 -53 -103 -13 -220 88 -259 90 -34 202 3 238
79 21 43 22 138 3 175 -21 40 -56 70 -105 87 -56 19 -91 19 -91 0z m90 -50
c57 -29 91 -101 76 -160 -3 -13 -20 -40 -36 -58 -16 -19 -28 -36 -25 -39 2 -2
-32 -4 -76 -5 -44 0 -77 2 -74 5 3 3 -9 20 -26 38 -104 107 28 288 161 219z
m84 -56 c9 -22 16 -45 15 -52 0 -6 -7 6 -15 28 -8 22 -27 53 -42 69 l-27 29
27 -17 c14 -10 33 -35 42 -57z m-259 -169 l30 -35 -32 29 c-18 17 -33 34 -33
40 0 5 1 7 3 5 1 -2 16 -20 32 -39z m265 27 c0 -2 -12 -14 -27 -28 l-28 -24
24 28 c23 25 31 32 31 24z"/>
<path d="M5260 5676 c0 -2 8 -10 18 -17 15 -13 16 -12 3 4 -13 16 -21 21 -21
13z"/>
<path d="M5436 5633 c-6 -14 -5 -15 5 -6 7 7 10 15 7 18 -3 3 -9 -2 -12 -12z"/>
<path d="M4858 5633 c7 -3 16 -2 19 1 4 3 -2 6 -13 5 -11 0 -14 -3 -6 -6z"/>
<path d="M5868 5593 c7 -3 16 -2 19 1 4 3 -2 6 -13 5 -11 0 -14 -3 -6 -6z"/>
<path d="M5331 5564 c0 -11 3 -14 6 -6 3 7 2 16 -1 19 -3 4 -6 -2 -5 -13z"/>
<path d="M5372 5550 c0 -19 2 -27 5 -17 2 9 2 25 0 35 -3 9 -5 1 -5 -18z"/>
<path d="M4892 5510 c0 -19 2 -27 5 -17 2 9 2 25 0 35 -3 9 -5 1 -5 -18z"/>
<path d="M5729 5523 c-13 -16 -12 -17 4 -4 16 13 21 21 13 21 -2 0 -10 -8 -17
-17z"/>
<path d="M6145 5500 c10 -11 20 -20 23 -20 3 0 -3 9 -13 20 -10 11 -20 20 -23
20 -3 0 3 -9 13 -20z"/>
<path d="M4863 5475 c0 -22 2 -30 4 -17 2 12 2 30 0 40 -3 9 -5 -1 -4 -23z"/>
<path d="M5688 5468 c-27 -42 -38 -90 -36 -157 l1 -66 6 80 c4 53 14 94 29
123 23 45 23 56 0 20z"/>
<path d="M5771 5455 c-17 -20 -31 -39 -31 -42 0 -4 3 -3 8 3 4 5 20 24 36 42
17 17 27 32 24 32 -3 0 -20 -16 -37 -35z"/>
<path d="M6080 5465 c13 -14 26 -25 28 -25 3 0 -5 11 -18 25 -13 14 -26 25
-28 25 -3 0 5 -11 18 -25z"/>
<path d="M6181 5450 c14 -31 19 -36 19 -24 0 6 -7 19 -16 30 -14 18 -14 18 -3
-6z"/>
<path d="M5452 5446 c7 -8 15 -12 17 -11 5 6 -10 25 -20 25 -5 0 -4 -6 3 -14z"/>
<path d="M6121 5410 c14 -31 19 -36 19 -24 0 6 -7 19 -16 30 -14 18 -14 18 -3
-6z"/>
<path d="M5726 5385 c-3 -9 -6 -24 -5 -33 0 -9 5 -4 10 12 9 32 6 48 -5 21z"/>
<path d="M4930 5387 c0 -2 15 -16 33 -33 l32 -29 -29 33 c-28 30 -36 37 -36
29z"/>
<path d="M5388 5373 c7 -3 16 -2 19 1 4 3 -2 6 -13 5 -11 0 -14 -3 -6 -6z"/>
<path d="M6290 5318 c-1 -35 -9 -88 -20 -118 -22 -64 -19 -79 6 -24 16 38 33
204 20 204 -3 0 -6 -28 -6 -62z"/>
<path d="M5319 5343 c-13 -16 -12 -17 4 -4 9 7 17 15 17 17 0 8 -8 3 -21 -13z"/>
<path d="M5682 5320 c0 -14 2 -19 5 -12 2 6 2 18 0 25 -3 6 -5 1 -5 -13z"/>
<path d="M5014 5316 c11 -9 24 -16 30 -16 12 0 7 5 -24 19 -24 11 -24 11 -6
-3z"/>
<path d="M5291 5294 c0 -11 3 -14 6 -6 3 7 2 16 -1 19 -3 4 -6 -2 -5 -13z"/>
<path d="M5088 5293 c18 -2 45 -2 60 0 15 2 0 4 -33 4 -33 0 -45 -2 -27 -4z"/>
<path d="M5720 5274 c0 -10 5 -26 10 -34 8 -11 9 -7 4 15 -8 37 -14 45 -14 19z"/>
<path d="M3335 5241 c-88 -15 -176 -36 -195 -45 -115 -59 -153 -155 -125 -316
18 -106 40 -156 86 -194 85 -72 130 -76 374 -36 219 35 259 53 309 134 36 57
44 133 27 245 -18 118 -61 179 -151 220 -60 27 -126 26 -325 -8z m102 -188
c67 -31 125 -63 127 -70 6 -15 -181 -223 -200 -223 -21 0 -26 18 -28 108 -2
59 -10 108 -25 151 -21 60 -22 91 -4 91 4 0 63 -25 130 -57z"/>
<path d="M5300 5267 c0 -5 5 -17 10 -27 9 -16 5 -22 -20 -35 -42 -22 -38 -28
5 -8 19 9 35 19 35 22 -1 10 -29 56 -30 48z"/>
<path d="M5168 5253 c7 -3 16 -2 19 1 4 3 -2 6 -13 5 -11 0 -14 -3 -6 -6z"/>
<path d="M5108 5243 c7 -3 16 -2 19 1 4 3 -2 6 -13 5 -11 0 -14 -3 -6 -6z"/>
<path d="M6121 5223 c-10 -26 -10 -27 4 -9 8 11 15 23 15 28 0 15 -7 8 -19
-19z"/>
<path d="M5666 5220 c27 -108 183 -203 304 -185 46 7 133 46 145 65 4 6 -19
-3 -50 -21 -50 -28 -67 -32 -129 -32 -112 -1 -203 56 -256 158 -12 24 -18 30
-14 15z"/>
<path d="M5748 5205 c6 -11 23 -31 39 -45 l28 -25 -30 35 c-47 55 -48 56 -37
35z"/>
<path d="M5065 5191 c-3 -11 -14 -22 -23 -24 -16 -4 -16 -5 0 -6 17 -1 45 36
35 46 -3 2 -8 -5 -12 -16z"/>
<path d="M6089 5173 c-13 -16 -12 -17 4 -4 9 7 17 15 17 17 0 8 -8 3 -21 -13z"/>
<path d="M2063 5126 c-17 -14 -59 -58 -93 -96 l-62 -70 10 -60 11 -60 -179
-180 -180 -180 -46 25 c-73 39 -170 29 -227 -23 -34 -31 -60 -94 -60 -149 0
-63 26 -116 77 -157 30 -25 48 -31 100 -34 73 -5 126 17 169 68 51 60 59 169
16 224 l-19 25 182 182 182 182 65 -12 65 -12 94 95 95 94 -60 12 c-49 10 -63
17 -76 40 -10 15 -17 39 -18 52 0 12 -4 31 -8 42 -7 17 -9 16 -38 -8z"/>
<path d="M5970 5110 c-21 -7 -21 -8 -5 -9 11 0 27 4 35 9 18 11 5 11 -30 0z"/>
<path d="M5888 5103 c6 -2 18 -2 25 0 6 3 1 5 -13 5 -14 0 -19 -2 -12 -5z"/>
<path d="M6680 4886 c63 -64 116 -116 118 -116 2 0 0 10 -3 21 -5 15 -4 19 4
15 34 -22 -2 13 -96 91 -151 124 -155 123 -23 -11z"/>
<path d="M300 4708 c-35 -13 -40 -42 -40 -228 0 -179 0 -181 25 -205 l24 -25
242 0 c216 0 241 2 235 16 -3 9 -6 33 -6 55 l0 39 -194 0 c-236 0 -226 -6
-226 135 0 143 -15 135 260 135 l230 0 25 40 c14 22 25 41 25 42 0 7 -583 2
-600 -4z"/>
<path d="M1960 4715 c0 -3 12 -23 26 -45 l27 -40 217 0 c265 0 250 8 250 -138
0 -78 -4 -104 -16 -116 -13 -13 -46 -16 -200 -16 l-184 0 0 -55 0 -55 439 0
440 0 28 24 28 24 3 181 3 181 -30 30 -29 30 -501 0 c-276 0 -501 -2 -501 -5z
m901 -108 c64 -43 69 -126 9 -179 -32 -29 -84 -37 -119 -18 -14 7 -26 1 -56
-30 -42 -43 -75 -52 -75 -22 0 10 17 35 38 56 37 35 38 39 29 74 -19 70 39
141 114 142 14 0 41 -10 60 -23z"/>
<path d="M2751 4573 c-11 -10 -24 -32 -27 -50 -5 -26 -1 -37 19 -57 51 -51
127 -22 127 48 0 62 -72 97 -119 59z"/>
<path d="M6852 4678 c-7 -7 -12 -16 -12 -21 0 -10 62 -88 66 -84 3 3 -34 108
-40 114 -1 2 -8 -3 -14 -9z"/>
<path d="M394 4587 c-3 -8 -4 -54 -2 -103 l3 -89 191 -3 192 -2 17 77 c10 43
24 90 31 106 l15 27 -221 0 c-174 0 -222 -3 -226 -13z"/>
<path d="M2034 4585 c11 -29 34 -120 41 -158 l6 -37 182 2 182 3 0 100 0 100
-209 3 c-185 2 -208 1 -202 -13z"/>
<path d="M3890 4493 c0 -12 9 -65 20 -118 11 -53 20 -99 20 -101 0 -2 4 -4 9
-4 4 0 -2 53 -15 117 -24 114 -34 147 -34 106z"/>
<path d="M4351 4335 c-33 -59 -61 -109 -61 -111 0 -2 6 -4 13 -4 17 0 129 202
118 213 -5 5 -34 -37 -70 -98z"/>
<path d="M3450 4296 c0 -4 166 -136 188 -150 6 -4 12 -3 12 2 0 11 -176 152
-190 152 -5 0 -10 -2 -10 -4z"/>
<path d="M4585 4084 c-102 -51 -136 -75 -103 -73 22 1 221 104 226 117 6 19
-5 15 -123 -44z"/>
<path d="M1930 3922 c-143 -172 -360 -261 -574 -233 -105 14 -215 54 -287 106
l-51 37 -34 -33 c-19 -18 -34 -38 -34 -43 0 -16 108 -100 165 -129 106 -53
185 -69 313 -65 93 3 132 9 189 30 92 33 199 104 262 175 71 79 144 224 114
223 -5 -1 -33 -31 -63 -68z"/>
<path d="M2372 3910 c0 -14 2 -19 5 -12 2 6 2 18 0 25 -3 6 -5 1 -5 -13z"/>
<path d="M4808 3903 c6 -2 18 -2 25 0 6 3 1 5 -13 5 -14 0 -19 -2 -12 -5z"/>
<path d="M4868 3893 c7 -3 16 -2 19 1 4 3 -2 6 -13 5 -11 0 -14 -3 -6 -6z"/>
<path d="M3366 3871 c-148 -8 -151 -27 -4 -23 62 2 119 5 126 7 13 5 7 27 -6
23 -4 -1 -56 -4 -116 -7z"/>
<path d="M5662 3769 c-87 -17 -133 -74 -152 -190 -34 -213 19 -407 116 -425
32 -6 34 -9 34 -46 0 -22 -5 -48 -10 -59 -13 -23 -8 -24 30 -4 16 9 38 32 49
52 l19 37 88 -3 c49 -1 143 -11 209 -22 155 -25 266 -25 321 0 66 30 130 120
169 240 26 80 18 207 -19 286 -33 73 -59 102 -111 126 -36 17 -69 18 -370 18
-181 -1 -349 -5 -373 -10z m686 -306 l-3 -218 -330 0 -330 0 -3 73 -3 72 31 0
c25 0 30 4 30 24 0 27 38 44 47 20 3 -8 18 -14 33 -14 26 0 29 4 32 38 2 29 7
37 23 37 17 0 21 8 25 60 5 57 7 60 33 63 21 3 27 -1 27 -17 0 -14 8 -21 28
-23 19 -2 28 -9 30 -25 3 -17 10 -23 28 -23 22 0 24 -4 24 -43 0 -42 1 -44 30
-45 23 0 30 4 30 19 0 13 7 19 24 19 14 0 28 5 32 11 3 6 17 9 30 6 23 -4 24
-2 24 49 0 54 0 54 31 54 30 0 31 1 26 34 -6 40 -2 46 30 46 l23 0 -2 -217z"/>
<path d="M3966 3734 c-20 -19 -20 -54 -1 -80 21 -28 19 -38 -14 -57 -38 -22
-48 -21 -56 3 -15 49 -83 61 -105 20 -20 -37 19 -70 80 -70 17 0 30 -1 30 -2
0 -2 9 -64 20 -138 27 -185 31 -170 -40 -170 l-60 0 0 -81 c0 -95 15 -132 75
-196 41 -43 42 -43 113 -43 86 0 112 18 161 109 29 55 32 67 29 138 l-3 78
-57 0 c-31 0 -59 3 -62 6 -3 3 1 66 9 140 8 74 15 142 15 152 0 13 8 17 33 17
68 0 107 67 52 92 -31 14 -72 -10 -81 -47 -7 -30 -5 -30 -55 -5 l-40 21 21 28
c11 16 20 38 20 49 0 26 -25 52 -50 52 -10 0 -26 -7 -34 -16z m64 -14 c13 -24
6 -52 -16 -70 -32 -28 -73 47 -42 78 18 18 46 14 58 -8z m170 -110 c0 -23 -28
-40 -64 -40 -34 0 -34 23 -1 56 20 20 28 23 45 14 11 -6 20 -19 20 -30z m-320
-10 c13 -25 5 -40 -21 -40 -51 0 -80 47 -42 69 21 11 48 -1 63 -29z m167 -12
c21 -12 40 -23 41 -24 5 -3 -28 -306 -34 -316 -3 -4 -25 -8 -49 -8 -38 0 -45
3 -50 23 -11 47 -44 291 -40 295 15 16 72 51 82 52 6 0 29 -10 50 -22z"/>
<path d="M4492 3668 c4 -12 227 -51 237 -42 11 10 -17 18 -116 35 -129 22
-126 22 -121 7z"/>
<path d="M2211 3564 c0 -11 3 -14 6 -6 3 7 2 16 -1 19 -3 4 -6 -2 -5 -13z"/>
<path d="M698 3361 c-31 -28 -33 -33 -33 -101 0 -68 2 -73 33 -101 27 -25 41
-29 87 -29 l55 0 0 130 0 130 -55 0 c-46 0 -60 -4 -87 -29z"/>
<path d="M5373 3123 c-8 -20 39 -63 68 -63 29 0 34 -26 15 -79 -24 -68 -21
-134 7 -167 18 -20 35 -28 75 -32 47 -4 54 -2 82 26 43 43 40 76 -10 122 -36
33 -40 42 -40 86 0 64 -19 90 -70 99 -22 4 -42 11 -46 16 -10 16 -74 10 -81
-8z"/>
<path d="M3259 3115 c-26 -14 -59 -78 -59 -113 1 -16 43 -72 55 -72 3 0 2 18
-1 40 -4 27 -3 40 5 40 6 0 11 8 11 18 0 14 9 17 53 17 34 0 56 -5 64 -15 11
-13 12 -12 13 8 0 12 7 25 15 28 21 8 19 41 -2 53 -27 14 -125 11 -154 -4z"/>
<path d="M5345 2912 c-50 -68 -43 -77 20 -30 59 44 68 62 35 71 -16 4 -29 -5
-55 -41z"/>
<path d="M3234 2872 c-7 -10 -30 -24 -52 -30 -47 -14 -90 -61 -130 -142 -25
-51 -27 -64 -27 -177 0 -108 2 -125 21 -150 11 -15 32 -30 45 -33 23 -6 24
-11 32 -110 5 -74 3 -153 -8 -265 -8 -88 -15 -189 -15 -225 0 -36 -12 -128
-25 -205 -29 -161 -45 -428 -26 -439 6 -4 11 -32 11 -66 0 -61 7 -70 55 -70
30 0 39 14 20 30 -17 14 -20 81 -5 96 13 13 60 184 100 368 35 158 100 371
110 359 9 -11 26 -122 61 -388 36 -284 45 -328 69 -350 11 -10 20 -29 20 -42
0 -13 5 -33 10 -43 10 -19 37 -19 888 -22 482 -1 902 -2 933 -3 41 0 62 5 76
17 25 22 33 23 33 1 0 -12 3 -14 11 -6 13 13 8 75 -7 80 -6 2 -26 -9 -45 -24
-31 -27 -39 -28 -150 -31 -117 -4 -118 -3 -112 18 4 14 -6 47 -27 90 l-33 68
-63 -31 -62 -31 29 -58 29 -58 -352 0 c-332 0 -355 1 -385 20 -49 29 -66 71
-61 151 4 74 24 113 69 136 17 9 100 13 297 13 l272 0 42 -85 42 -84 58 31
c32 17 58 35 58 40 0 5 -9 27 -21 49 -11 23 -19 43 -17 45 2 1 78 4 168 5
l165 1 10 -102 c7 -68 16 -104 25 -111 17 -11 60 -3 77 14 16 16 32 226 34
442 1 93 6 183 10 200 5 16 12 71 15 120 8 126 14 133 34 35 44 -217 64 -302
106 -446 59 -206 112 -342 134 -349 10 -3 30 0 45 7 27 12 27 13 22 83 -7 76
-40 252 -83 435 -26 113 -26 118 -20 372 3 147 2 267 -3 280 l-9 24 -89 -18
c-89 -19 -286 -21 -325 -4 -17 8 -18 -5 -18 -200 1 -193 9 -384 26 -641 l7
-103 -41 0 c-31 0 -42 4 -42 15 0 13 -23 15 -145 15 l-145 0 -65 130 c-36 71
-65 132 -65 135 0 3 95 5 210 5 161 0 210 3 210 13 0 9 -50 12 -220 11 l-219
0 -21 48 c-11 26 -22 48 -23 48 -1 0 -24 -11 -51 -25 -27 -14 -56 -25 -63 -25
-10 0 -11 -5 -4 -19 6 -10 7 -21 4 -25 -10 -10 -153 -7 -153 3 0 5 8 12 18 15
30 10 84 88 77 113 -3 13 -8 34 -11 48 -5 20 -2 25 20 31 35 8 56 51 56 111 0
67 -34 221 -58 269 -34 67 -98 140 -133 153 -41 16 -113 44 -117 47 -2 1 8 26
22 55 30 61 32 90 10 127 -23 40 -78 61 -157 60 -61 0 -70 -3 -84 -25 -14 -21
-14 -25 -1 -41 9 -9 18 -29 22 -44 9 -37 26 -36 26 2 0 30 0 30 53 28 70 -2
77 -9 65 -61 -5 -23 -11 -43 -12 -45 -2 -1 -15 3 -30 9 -53 24 -97 -21 -61
-61 14 -15 11 -19 -30 -46 -54 -34 -83 -69 -129 -158 l-34 -65 26 -3 c24 -3
29 -13 68 -131 23 -70 45 -127 50 -125 9 3 10 79 4 253 -5 140 38 255 95 255
34 0 55 10 55 26 0 8 5 14 10 14 9 0 14 -15 8 -23 -2 -2 3 -11 11 -20 10 -13
12 -33 6 -81 -4 -40 -2 -80 5 -107 14 -50 15 -209 2 -254 -7 -26 -16 -32 -68
-45 -47 -12 -61 -21 -72 -43 -7 -15 -10 -32 -7 -37 4 -6 61 -11 133 -11 l127
-2 -90 -8 c-49 -4 -215 -7 -367 -6 -200 1 -280 -1 -289 -10 -25 -25 -29 -105
-14 -263 9 -85 18 -183 21 -217 l4 -63 -90 0 c-50 0 -101 -5 -113 -11 -16 -7
-14 -3 9 19 l31 29 -8 269 c-5 148 -13 321 -19 384 -6 63 -15 174 -20 246 -5
71 -12 154 -16 183 l-7 52 34 -20 c91 -55 130 0 163 228 17 115 12 134 -32
129 -21 -3 -28 -12 -42 -63 -9 -33 -25 -78 -34 -100 l-18 -40 -45 50 c-66 74
-148 178 -156 197 -4 13 -17 17 -49 15 -24 0 -50 2 -58 6 -10 5 -19 1 -26 -11z
m1119 -285 c4 -11 -28 -77 -38 -77 -1 0 2 20 8 45 10 45 21 56 30 32z m-949
-81 c-4 -11 4 -16 33 -18 30 -2 38 -7 38 -23 0 -14 -11 -23 -38 -32 -72 -24
-123 22 -70 64 32 26 45 29 37 9z m500 -858 c3 -29 6 -90 6 -134 0 -73 -2 -82
-20 -87 -15 -4 -20 0 -21 16 0 12 -4 75 -7 140 -7 114 -7 117 14 117 18 0 22
-8 28 -52z m426 4 l-40 -39 0 -91 0 -92 -110 0 c-60 0 -110 3 -110 8 -1 4 -3
62 -6 130 l-6 122 156 0 157 0 -41 -38z m405 -122 c36 -71 65 -132 65 -135 0
-4 -95 -5 -211 -3 l-211 3 -29 33 c-26 29 -29 40 -29 98 0 62 2 68 34 100 l34
34 141 0 141 0 65 -130z m-815 -199 c0 -24 -3 -28 -24 -24 -13 3 -26 13 -29
23 -6 24 0 30 30 30 19 0 23 -5 23 -29z m330 25 c0 -2 -17 -14 -37 -26 -51
-30 -140 -34 -147 -6 -3 11 -3 23 0 28 5 8 184 12 184 4z"/>
<path d="M2297 2610 c-31 -16 -67 -30 -80 -30 -39 0 -47 -18 -47 -106 0 -89
-3 -94 -60 -113 -39 -13 -82 -47 -99 -79 -6 -11 -11 -46 -11 -76 0 -48 4 -60
31 -91 17 -19 34 -35 39 -35 4 0 10 30 14 68 10 95 23 139 49 157 28 19 29 19
56 -6 23 -21 23 -24 16 -175 l-7 -154 47 -20 c40 -17 190 -60 210 -60 4 0 4
34 0 75 -6 71 -5 77 19 106 30 35 32 58 10 101 -12 23 -13 36 -6 53 8 18 6 31
-9 59 -16 30 -18 48 -12 111 5 67 4 79 -15 104 -13 19 -17 32 -11 42 5 8 9 20
9 27 0 17 -57 72 -75 72 -7 0 -37 -13 -68 -30z m80 -154 c0 -32 -6 -58 -16
-69 -14 -17 -14 -21 2 -49 37 -64 2 -80 -59 -26 -32 28 -35 36 -30 66 4 26 0
42 -15 60 l-20 26 27 21 c18 15 41 22 69 22 l43 0 -1 -51z"/>
<path d="M2128 2553 c7 -3 16 -2 19 1 4 3 -2 6 -13 5 -11 0 -14 -3 -6 -6z"/>
<path d="M1436 2458 c-3 -46 -7 -109 -9 -140 l-4 -58 31 0 c41 -1 105 -31 138
-66 104 -112 34 -305 -118 -322 -43 -5 -45 -6 -39 -31 8 -31 -1 -25 69 -45 44
-13 69 -29 106 -65 92 -92 104 -221 33 -334 l-25 -39 24 -25 c52 -57 141 -139
164 -151 25 -13 44 -9 44 9 0 15 72 119 82 119 5 0 6 -10 2 -22 l-6 -23 24 23
c31 29 40 28 32 -3 -6 -26 4 -33 22 -15 7 7 21 -11 42 -58 39 -85 43 -155 11
-196 l-22 -27 39 6 c22 4 47 17 58 28 32 38 14 128 -45 226 -11 18 -11 25 -1
28 14 5 17 53 2 53 -5 0 -10 10 -10 23 0 12 -7 35 -15 51 -8 15 -12 32 -9 37
3 5 -2 9 -10 9 -26 0 -22 70 4 77 23 6 27 41 5 49 -9 4 -15 19 -15 40 l0 34
283 -2 282 -3 -2 -40 c-3 -99 18 -459 28 -471 6 -8 26 -14 44 -14 l33 0 11 77
c12 88 27 236 36 366 7 85 7 87 32 87 l26 0 -6 -115 c-9 -162 2 -373 20 -391
8 -8 28 -14 44 -14 22 0 30 5 33 23 3 12 7 34 10 48 26 121 61 485 53 544 -13
88 -3 85 -244 85 -117 0 -213 3 -213 7 0 4 22 74 49 157 64 198 65 203 53 191
-5 -5 -31 -77 -57 -160 -26 -82 -51 -153 -54 -157 -8 -9 -341 -12 -364 -3 -13
6 -18 1 -23 -24 -4 -17 -10 -31 -15 -31 -11 0 -47 119 -63 210 -7 41 -20 89
-29 107 -22 41 -22 125 0 166 9 18 22 66 29 107 7 41 16 90 20 108 l7 32 -311
0 -310 0 -6 -82z m465 -491 c73 -49 102 -145 65 -215 -30 -57 -62 -76 -134
-80 -57 -3 -72 0 -102 20 -83 55 -95 185 -24 250 58 52 139 63 195 25z m97
-587 c-2 -19 -8 -35 -14 -37 -16 -5 -27 57 -12 74 16 20 30 1 26 -37z m-63 0
c19 -36 19 -40 0 -40 -16 0 -35 30 -35 54 0 26 18 18 35 -14z"/>
<path d="M1798 1879 c-10 -5 -18 -16 -18 -22 0 -14 35 -47 50 -47 6 0 10 -4
10 -9 0 -5 -13 -8 -30 -6 -35 5 -39 -5 -9 -23 18 -11 24 -11 40 4 23 21 25 42
4 50 -18 7 -20 30 -2 37 9 4 8 8 -3 16 -18 13 -20 13 -42 0z m17 -19 c3 -5 1
-10 -4 -10 -6 0 -11 5 -11 10 0 6 2 10 4 10 3 0 8 -4 11 -10z"/>
<path d="M1422 2125 c-24 -22 -22 -49 4 -59 8 -3 14 -17 14 -32 0 -23 -2 -25
-15 -14 -26 22 -26 5 0 -20 l25 -23 25 23 c30 28 32 46 5 62 -24 15 -28 50 -5
42 23 -9 18 12 -7 28 -21 14 -25 13 -46 -7z m18 -27 c0 -16 -3 -19 -11 -11 -6
6 -8 16 -5 22 11 17 16 13 16 -11z m32 -80 c-9 -9 -12 -7 -12 12 0 19 3 21 12
12 9 -9 9 -15 0 -24z"/>
<path d="M6030 1875 c-13 -16 -6 -65 10 -65 6 0 10 18 10 40 0 44 -2 47 -20
25z"/>
<path d="M4640 1860 c0 -13 5 -20 13 -17 6 2 12 10 12 17 0 7 -6 15 -12 18 -8
2 -13 -5 -13 -18z"/>
<path d="M6060 1825 c0 -30 -4 -55 -8 -55 -5 0 -17 17 -27 38 l-19 37 -4 -34
c-2 -19 1 -54 8 -78 6 -24 8 -48 5 -54 -10 -16 -40 -10 -58 12 -29 34 -30 15
-3 -38 24 -46 69 -103 81 -103 3 0 5 12 5 28 0 15 5 34 11 42 7 11 9 -4 4 -52
-4 -38 -4 -68 -1 -68 8 0 93 122 112 162 21 46 12 59 -19 30 -34 -32 -61 -29
-54 6 3 15 8 45 12 67 l7 40 -26 -40 c-14 -22 -26 -55 -26 -73 0 -21 -4 -31
-11 -26 -16 10 -2 69 27 111 27 40 29 60 10 86 -21 27 -26 21 -26 -38z"/>
<path d="M1073 1818 c-38 -18 -39 -58 -2 -79 11 -5 19 -20 19 -34 0 -27 -9
-32 -28 -13 -6 6 -15 8 -19 4 -5 -4 1 -14 12 -21 11 -8 26 -19 33 -25 7 -6 12
-7 12 -1 0 5 9 12 19 16 34 10 37 46 7 71 -25 22 -36 64 -16 64 6 0 10 -4 10
-10 0 -5 5 -10 11 -10 16 0 6 21 -17 36 -13 8 -25 9 -41 2z m17 -38 c0 -11 -4
-20 -10 -20 -5 0 -10 9 -10 20 0 11 5 20 10 20 6 0 10 -9 10 -20z m33 -66 c8
-8 -3 -34 -14 -34 -5 0 -9 9 -9 20 0 19 11 26 23 14z"/>
<path d="M471 1786 c13 -11 99 -57 99 -53 0 6 -86 57 -96 57 -4 0 -5 -2 -3 -4z"/>
<path d="M454 1752 c4 -7 26 -22 49 -33 49 -25 39 -12 -17 21 -22 13 -36 18
-32 12z"/>
<path d="M5913 1645 c5 -66 35 -140 91 -225 l35 -55 1 80 0 80 -40 39 c-22 22
-52 62 -66 90 l-26 51 5 -60z"/>
<path d="M6175 1643 c-11 -21 -42 -67 -69 -103 -41 -54 -50 -74 -54 -117 -2
-29 0 -53 5 -53 13 0 100 147 124 210 11 29 19 64 17 77 -3 23 -5 22 -23 -14z"/>
<path d="M1420 1652 c0 -4 -10 -12 -22 -17 -34 -15 -36 -59 -4 -81 18 -11 26
-25 26 -45 0 -33 -6 -36 -32 -12 -15 13 -18 13 -18 2 0 -8 14 -26 30 -41 l30
-26 30 26 c37 32 38 64 5 90 -16 13 -25 30 -25 47 0 23 2 25 15 15 21 -17 42
-8 22 10 -45 41 -57 48 -57 32z m0 -57 c0 -14 -4 -25 -9 -25 -12 0 -19 21 -13
38 8 21 22 13 22 -13z m44 -81 c7 -18 0 -34 -15 -34 -5 0 -9 11 -9 25 0 28 15
34 24 9z"/>
<path d="M1082 1485 c0 -16 2 -22 5 -12 2 9 2 23 0 30 -3 6 -5 -1 -5 -18z"/>
<path d="M768 1493 c7 -3 16 -2 19 1 4 3 -2 6 -13 5 -11 0 -14 -3 -6 -6z"/>
<path d="M640 1486 c0 -2 8 -10 17 -17 10 -8 14 -9 10 -2 -5 8 6 13 35 16 41
3 41 4 -9 5 -29 1 -53 0 -53 -2z"/>
<path d="M745 1390 c10 -11 20 -20 23 -20 3 0 -3 9 -13 20 -10 11 -20 20 -23
20 -3 0 3 -9 13 -20z"/>
<path d="M1076 1211 c-3 -4 6 -6 19 -3 14 2 25 6 25 8 0 8 -39 4 -44 -5z"/>
<path d="M1953 1203 c-28 -19 -30 -59 -3 -75 11 -7 20 -24 20 -37 0 -20 -2
-22 -15 -11 -28 23 -30 0 -2 -26 25 -23 28 -24 52 -8 38 25 42 54 11 80 -14
13 -26 31 -26 41 0 13 3 14 12 5 16 -16 28 -15 28 2 0 7 -11 21 -25 30 -29 19
-24 19 -52 -1z m17 -39 c0 -8 -5 -12 -10 -9 -6 4 -8 11 -5 16 9 14 15 11 15
-7z m32 -86 c-9 -9 -12 -7 -12 12 0 19 3 21 12 12 9 -9 9 -15 0 -24z"/>
<path d="M4640 1111 c0 -62 19 -96 42 -73 7 7 17 7 34 0 13 -6 25 -9 27 -7 1
2 1 34 -1 72 l-4 67 -49 0 -49 0 0 -59z"/>
<path d="M6183 1147 c-82 -31 -107 -85 -82 -177 3 -10 -6 -16 -27 -20 -18 -3
-70 -27 -118 -55 -62 -37 -85 -56 -86 -70 0 -25 18 -45 41 -45 28 0 199 112
199 131 0 25 20 29 55 11 40 -20 150 -27 204 -12 134 36 150 175 27 231 -47
21 -162 25 -213 6z m220 -66 c50 -31 54 -51 18 -83 -40 -36 -122 -52 -186 -38
-130 29 -149 95 -39 136 56 21 162 13 207 -15z"/>
<path d="M2640 1055 c0 -19 5 -35 10 -35 6 0 10 5 10 11 0 5 10 3 22 -5 27
-19 92 -22 86 -4 -2 6 -17 16 -34 21 -16 5 -38 18 -50 28 -31 28 -44 23 -44
-16z"/>
<path d="M2840 1055 c0 -19 5 -35 11 -35 5 0 7 5 4 10 -8 14 -2 13 31 -5 35
-18 87 -20 82 -3 -2 6 -17 16 -34 21 -16 5 -38 18 -50 28 -31 28 -44 23 -44
-16z"/>
<path d="M5846 1065 c-9 -37 -42 -65 -75 -65 -28 0 -60 -24 -48 -36 3 -4 31
-3 62 1 48 6 57 10 71 37 15 28 16 29 29 11 13 -17 14 -16 15 10 0 59 -42 92
-54 42z"/>
</g>
</svg>
