<?xml version="1.0" encoding="UTF-8"?>
<svg width="80px" height="40px" viewBox="0 0 80 40" version="1.1" xmlns="http://www.w3.org/2000/svg" xmlns:xlink="http://www.w3.org/1999/xlink">
    <!-- Generator: Sketch 60.1 (88133) - https://sketch.com -->
    <title>Torob-logo</title>
    <desc>Created with Sketch.</desc>
    <g id="Business-landing" stroke="none" stroke-width="1" fill="none" fill-rule="evenodd">
        <g id="business_landing-page" transform="translate(-1199.000000, -12.000000)" fill-rule="nonzero">
            <g id="Group-24" transform="translate(1199.000000, 12.000000)">
                <g id="Group-12" transform="translate(4.000000, 4.000000)">
                    <path d="M31.6818182,11.5 L31.6907273,11.5323636 C31.7047879,11.5847273 31.7275758,11.6739394 31.7590909,11.8 C31.7984848,11.9575758 31.8424242,12.15 31.8909091,12.3772727 C31.9393939,12.6045455 31.9893939,12.8575758 32.0409091,13.1363636 C32.0924242,13.4151515 32.1409091,13.6954545 32.1863636,13.9772727 C32.2318182,14.2590909 32.2681818,14.5333333 32.2954545,14.8 C32.3227273,15.0666667 32.3363636,15.3 32.3363636,15.5 C32.3363636,16.1242424 32.2333333,16.6651515 32.0272727,17.1227273 C31.8212121,17.580303 31.5515152,17.9575758 31.2181818,18.2545455 C30.8848485,18.5515152 30.5106061,18.7727273 30.0954545,18.9181818 C29.680303,19.0636364 29.2636364,19.1363636 28.8454545,19.1363636 L28.8454545,19.1363636 L24.9272727,19.1363636 L24.7015152,19.1313131 C24.5419192,19.1245791 24.3883838,19.1111111 24.2409091,19.0909091 C24.019697,19.0606061 23.8030303,18.9757576 23.5909091,18.8363636 C23.5181818,19.6181818 23.3393939,20.3272727 23.0545455,20.9636364 C22.769697,21.6 22.3893939,22.1439394 21.9136364,22.5954545 C21.4378788,23.0469697 20.869697,23.3969697 20.2090909,23.6454545 C19.5484848,23.8939394 18.8060606,24.0181818 17.9818182,24.0181818 L17.9818182,24.0181818 L16.8454545,24.0181818 L16.8454545,21.7545455 L17.9818182,21.7545455 L18.2661616,21.7494949 C18.7291246,21.7326599 19.1373737,21.6737374 19.4909091,21.5727273 C19.9151515,21.4515152 20.2636364,21.2575758 20.5363636,20.9909091 C20.8090909,20.7242424 21.0121212,20.3772727 21.1454545,19.95 C21.2787879,19.5227273 21.3454545,19.0030303 21.3454545,18.3909091 L21.3454545,18.3909091 L21.3454545,12.8545455 L23.6090909,12.8545455 L23.6090909,15.5727273 L23.6161818,15.7334545 C23.6350909,15.9390303 23.6918182,16.109697 23.7863636,16.2454545 C23.9045455,16.4151515 24.0409091,16.5469697 24.1954545,16.6409091 C24.35,16.7348485 24.5,16.7969697 24.6454545,16.8272727 C24.7909091,16.8575758 24.8909091,16.8727273 24.9454545,16.8727273 L24.9454545,16.8727273 L28.9090909,16.8727273 L28.9696023,16.8707386 C29.0360795,16.8667614 29.1204545,16.8568182 29.2227273,16.8409091 C29.3590909,16.819697 29.4954545,16.7636364 29.6318182,16.6727273 C29.7681818,16.5818182 29.8878788,16.4439394 29.9909091,16.2590909 C30.0939394,16.0742424 30.1454545,15.8212121 30.1454545,15.5 C30.1454545,15.3666667 30.1348485,15.2045455 30.1136364,15.0136364 C30.0924242,14.8227273 30.0636364,14.6181818 30.0272727,14.4 C29.9909091,14.1818182 29.95,13.9590909 29.9045455,13.7318182 C29.8590909,13.5045455 29.8151515,13.2893939 29.7727273,13.0863636 C29.730303,12.8833333 29.6878788,12.6984848 29.6454545,12.5318182 C29.6030303,12.3651515 29.569697,12.2363636 29.5454545,12.1454545 L29.5454545,12.1454545 L31.6818182,11.5 Z M9.06363636,20.5181818 L10.7363636,22.1909091 L9.08181818,23.8454545 L7.42727273,22.1727273 L9.06363636,20.5181818 Z M17.4727273,12.2909091 L17.4818182,12.3340909 L17.4818182,12.3340909 L17.4909091,12.3727273 C17.5393939,12.6030303 17.5893939,12.8575758 17.6409091,13.1363636 C17.6924242,13.4151515 17.7409091,13.6954545 17.7863636,13.9772727 C17.8318182,14.2590909 17.8681818,14.5333333 17.8954545,14.8 C17.9227273,15.0666667 17.9363636,15.3 17.9363636,15.5 C17.9363636,16.1242424 17.8333333,16.6651515 17.6272727,17.1227273 C17.4212121,17.580303 17.1515152,17.9575758 16.8181818,18.2545455 C16.4848485,18.5515152 16.1106061,18.7727273 15.6954545,18.9181818 C15.280303,19.0636364 14.8636364,19.1363636 14.4454545,19.1363636 L14.4454545,19.1363636 L3.65454545,19.1363636 L3.38836364,19.1272727 C3.03733333,19.1030303 2.70181818,19.030303 2.38181818,18.9090909 C1.98181818,18.7575758 1.62727273,18.5363636 1.31818182,18.2454545 C1.1969697,18.130303 1.07121212,17.9909091 0.940909091,17.8272727 C0.810606061,17.6636364 0.693939394,17.469697 0.590909091,17.2454545 C0.487878788,17.0212121 0.403030303,16.7681818 0.336363636,16.4863636 C0.26969697,16.2045455 0.236363636,15.8878788 0.236363636,15.5363636 C0.236363636,15.2333333 0.266666667,14.9045455 0.327272727,14.55 C0.387878788,14.1954545 0.456060606,13.8606061 0.531818182,13.5454545 C0.607575758,13.230303 0.678787879,12.9575758 0.745454545,12.7272727 C0.812121212,12.4969697 0.854545455,12.3545455 0.872727273,12.3 L0.872727273,12.3 L1.95454545,12.6454545 L3.02727273,12.9818182 L2.98579545,13.1105114 C2.94375,13.2451705 2.9,13.3977273 2.85454545,13.5681818 C2.79393939,13.7954545 2.73636364,14.0287879 2.68181818,14.2681818 C2.62727273,14.5075758 2.58181818,14.7393939 2.54545455,14.9636364 C2.50909091,15.1878788 2.49090909,15.3818182 2.49090909,15.5454545 C2.49090909,15.8363636 2.53181818,16.0712121 2.61363636,16.25 C2.69545455,16.4287879 2.79545455,16.5651515 2.91363636,16.6590909 C3.03181818,16.7530303 3.14848485,16.8121212 3.26363636,16.8363636 C3.37878788,16.8606061 3.51515152,16.8727273 3.67272727,16.8727273 L3.67272727,16.8727273 L14.5090909,16.8727273 L14.5696023,16.8707386 C14.6360795,16.8667614 14.7204545,16.8568182 14.8227273,16.8409091 C14.9590909,16.819697 15.0954545,16.7636364 15.2318182,16.6727273 C15.3681818,16.5818182 15.4878788,16.4439394 15.5909091,16.2590909 C15.6939394,16.0742424 15.7454545,15.8212121 15.7454545,15.5 C15.7454545,15.3666667 15.7348485,15.2045455 15.7136364,15.0136364 C15.6924242,14.8227273 15.6636364,14.6181818 15.6272727,14.4 C15.5909091,14.1818182 15.55,13.9590909 15.5045455,13.7318182 C15.4590909,13.5045455 15.4151515,13.2878788 15.3727273,13.0818182 C15.3545455,13.0030303 15.3393939,12.9272727 15.3272727,12.8545455 L15.3272727,12.8545455 L17.4727273,12.2909091 Z M26.9909091,6.62727273 L28.5545455,8.19090909 L27.0181818,9.73636364 L25.4909091,8.19090909 L26.9909091,6.62727273 Z M30.8090909,6.61818182 L32.3727273,8.18181818 L30.8272727,9.72727273 L29.3,8.18181818 L30.8090909,6.61818182 Z" id="ترب" fill="#D73948"></path>
                    <g id="torob_logo" transform="translate(41.000000, 0.000000)">
                        <path d="M28.1003912,7.30579235 L27.8780551,7.56692168 C27.0008383,8.52167577 25.8163934,9.07657559 24.5228018,9.11737705 C24.4662072,9.12553734 24.4015276,9.12553734 24.3449329,9.12553734 C24.183234,9.12553734 24.0336624,9.11737705 23.8800484,9.10105647 C26.9280738,12.7323862 27.3889158,18.077377 24.6683308,22.2513661 C21.9598733,26.4008743 16.9472057,28.0941348 12.4600596,26.7395264 L12.4317623,26.7395264 C10.612649,26.2580692 8.55098733,26.9843352 7.45951937,28.6857559 C8.59141207,26.9435337 8.42971311,24.711694 7.1765462,23.1775592 L7.1765462,23.1612386 C4.22149776,19.5380692 3.81725037,14.2746812 6.51358048,10.1618944 C9.46458644,5.6329326 15.1644747,4.03351548 19.9265089,6.12255009 C19.7243852,5.59213115 19.5950261,5.02091075 19.5626863,4.43744991 C19.5222615,3.37661202 19.8254471,2.35657559 20.4035209,1.49974499 C14.0164121,-0.621930783 6.73995902,1.70375228 2.85918405,7.66076503 C-1.80987332,14.80102 0.150726528,24.3893625 7.18463115,29.0815301 C14.2347057,33.7777778 23.7062221,31.7785064 28.3550671,24.6790528 C31.9124441,19.223898 31.6092586,12.336612 28.1044337,7.29763206 L28.1003912,7.30579235 Z" id="Path" fill="#E91E33"></path>
                        <path d="M11.3362519,3.67446266 C7.46760432,4.0620765 4.08001118,5.7308561 2.80663189,7.69748634 C-1.84221311,14.8173406 0.106259314,24.3934426 7.1603763,29.0856102 L7.41909463,28.6857559 C8.55098733,26.9435337 8.38928838,24.711694 7.13612146,23.1775592 L7.13612146,23.1612386 C4.22149776,19.5380692 3.81725037,14.2746812 6.48528316,10.1618944 C9.43628912,5.6329326 15.1361773,4.03351548 19.8982116,6.12255009 C19.8982116,6.12255009 15.8557377,3.22564663 11.3443368,3.67446266 L11.3362519,3.67446266 Z" id="Path" fill="#BF0F22"></path>
                        <path d="M22.1781669,8.023898 C22.1781669,8.023898 22.0568927,6.55504554 22.7036885,5.49420765 C23.3504844,4.43336976 24.7249255,3.3929326 26.4631893,3.50309654 C28.209538,3.61326047 28.4925112,4.02127505 28.4925112,4.02127505 C28.4925112,4.02127505 28.5329359,5.44932605 28.047839,6.26535519 C27.5627422,7.08138434 26.5521237,8.28094718 25.0968331,8.58287796 C23.6415425,8.8807286 22.1781669,8.023898 22.1781669,8.023898 Z" id="Path" fill="#6FBC23"></path>
                        <path d="M21.6526453,7.61180328 C21.6526453,7.61180328 21.4909463,6.18375228 22.4611401,4.75570128 C23.4313338,3.32765027 24.482377,3.1154827 24.482377,3.1154827 C24.482377,3.1154827 24.3611028,1.15701275 23.4313338,0.218579235 C23.5121833,0.198178506 22.323696,0.247140255 21.2888227,1.40182149 C20.3752235,2.41369763 19.833532,4.01311475 20.2377794,5.56357013 C20.6420268,7.1140255 21.6526453,7.61180328 21.6526453,7.61180328 Z" id="Path" fill="#519A23"></path>
                    </g>
                </g>
            </g>
        </g>
    </g>
</svg>